<svg width="64" height="64" version="1.1" viewBox="0 0 16.933 16.933" xmlns="http://www.w3.org/2000/svg" xmlns:xlink="http://www.w3.org/1999/xlink">
 <defs>
  <linearGradient id="d" x1="34.601" x2="34.601" y1="50.4" y2="45.086" gradientUnits="userSpaceOnUse">
   <stop offset="0"/>
   <stop stop-opacity="0" offset="1"/>
  </linearGradient>
 </defs>
 <circle cx="8.4665" cy="8.4665" r="7.1436" fill="#f9f9f9" style="paint-order:stroke fill markers"/>
 <g transform="matrix(.69229 0 0 .69229 2.5955 2.9766)">
  <path d="m2.57 2.117s-0.982 0-0.982 0.977c0 0-0.053 4.779 0.982 6.838 0.62 1.236 3.927 3.908 3.927 3.908h3.928s3.306-2.672 3.927-3.908c1.035-2.06 0.982-6.838 0.982-6.838 0.139-0.968-0.982-0.977-0.982-0.977 0 1.954-1.964 1.954-1.964 1.954h-7.855s-1.963 0-1.963-1.954z" fill="#5c4e3c"/>
  <g transform="matrix(.34395 0 0 .34223 -43.43 -80.23)">
   <circle cx="159.87" cy="259.33" r="4" fill="#fff"/>
   <path d="m159.74 257.33a3 3 0 0 0-2.874 2.995 3 3 0 0 0 3 3 3 3 0 0 0 3-3 3 3 0 0 0-2.85-2.992 1.5 1.5 0 0 1 1.35 1.492 1.5 1.5 0 0 1-1.5 1.5 1.5 1.5 0 0 1-1.5-1.5 1.5 1.5 0 0 1 1.374-1.495z" opacity=".8"/>
  </g>
  <g transform="matrix(.34395 0 0 .34223 -49.622 -80.23)">
   <circle cx="159.87" cy="259.33" r="4" fill="#fff"/>
   <path d="m159.74 257.33a3 3 0 0 0-2.874 2.995 3 3 0 0 0 3 3 3 3 0 0 0 3-3 3 3 0 0 0-2.85-2.992 1.5 1.5 0 0 1 1.35 1.492 1.5 1.5 0 0 1-1.5 1.5 1.5 1.5 0 0 1-1.5-1.5 1.5 1.5 0 0 1 1.374-1.495z" opacity=".8"/>
  </g>
  <path d="m6.497 13.84s0.575 0.977 1.964 0.977c1.388 0 1.964-0.977 1.964-0.977s-0.491-0.977-1.964-0.977-1.964 0.977-1.964 0.977z" fill="#252525" fill-rule="evenodd"/>
  <path transform="matrix(.34395 0 0 .34223 -2.546 -2.432)" d="m34.537 45.086a5.5 5 0 0 1 0.072 0.791 5.5 5 0 0 1-3.117 4.502c0.167 0.01 0.332 0.021 0.508 0.021 4.037 0 5.709-2.855 5.709-2.855s-0.846-1.677-3.172-2.46z" fill="url(#d)" fill-rule="evenodd" opacity=".25"/>
 </g>
</svg>
